<?xml version="1.0" encoding="utf-8"?>
<!-- Generator: Adobe Illustrator 21.0.2, SVG Export Plug-In . SVG Version: 6.00 Build 0)  -->
<svg version="1.1" id="Layer_1" xmlns="http://www.w3.org/2000/svg" xmlns:xlink="http://www.w3.org/1999/xlink" x="0px" y="0px"
	 viewBox="0 0 377 377" style="enable-background:new 0 0 377 377;" xml:space="preserve">
<style type="text/css">
	.st0{fill:#01416F;}
	.st1{fill:#00AEEF;}
	.st2{fill:#005873;}
</style>
<g>
	<path class="st0" d="M37.4,211.1l0,2.1c0,0.4-0.3,0.7-0.7,0.7l-28.2,0.2c-0.4,0-0.7-0.3-0.7-0.7l0-2.1c0-0.4,0.3-0.7,0.7-0.7
		l28.2-0.2C37,210.3,37.4,210.7,37.4,211.1z"/>
	<path class="st0" d="M7.6,202.4l0,3.6c0,0.4,0.3,0.7,0.7,0.7l28.2-0.2c0.4,0,0.7-0.3,0.7-0.7l0-3.6c0-0.4-0.3-0.7-0.7-0.7
		l-28.2,0.2C7.9,201.7,7.6,202,7.6,202.4z"/>
	<path class="st0" d="M7.6,195.8l0,1.1c0,0.4,0.3,0.7,0.7,0.7l28.2-0.2c0.4,0,0.7-0.3,0.7-0.7l0-1.1c0-0.4-0.3-0.7-0.7-0.7L8.3,195
		C7.9,195,7.6,195.3,7.6,195.8z"/>
	<path class="st0" d="M7.5,186.7l0,4.5c0,0.4,0.3,0.7,0.7,0.7l14.7-0.1c-2.2-1.5-3.9-3.5-5-5.9L8.2,186C7.8,186,7.5,186.3,7.5,186.7
		z"/>
	<path class="st0" d="M7.4,181.5L7.4,181.5c0,0.4,0.3,0.8,0.7,0.7l8.6-0.1c-0.1-0.5-0.1-1-0.2-1.5l-8.4,0.1
		C7.8,180.7,7.4,181,7.4,181.5z"/>
	<path class="st0" d="M7.4,177.3l0,0.5c0,0.4,0.3,0.7,0.7,0.7l8.5-0.1c0.1-0.7,0.2-1.3,0.3-2l-8.8,0.1
		C7.7,176.5,7.4,176.9,7.4,177.3z"/>
	<path class="st0" d="M7.4,171.8l0,2.4c0,0.4,0.3,0.7,0.7,0.7l9.3-0.1c0.5-1.4,1.2-2.7,2.1-3.9l-11.4,0.1
		C7.7,171.1,7.4,171.4,7.4,171.8z"/>
	<path class="st1" d="M44.1,162.6l-6.1,6.2c-2-1.3-4.4-2-7-2c-7.2,0.1-13,5.9-12.9,13.1c0.1,7.2,5.9,13,13.1,12.9s13-5.9,12.9-13.1
		c0-2.6-0.8-4.9-2.1-6.9l6.1-6.2c0.6-0.6,0.8-1.3,0.8-2c0-0.7-0.3-1.5-0.8-2C47,161.5,45.2,161.5,44.1,162.6z M40.1,179.7
		c0,4.9-3.9,9-8.9,9s-9-3.9-9-8.9c0-4.9,3.9-9,8.9-9C36.1,170.8,40.1,174.8,40.1,179.7z"/>
</g>
<g>
	<path class="st1" d="M209.3,31.7l9.1,18.7c0.4,0.8,0,1.4-0.9,1.4h-57c-0.8,0-1.2-0.6-0.9-1.4l9.1-18.7c0.1-0.3,0.5-0.5,0.9-0.5h7.8
		c0.2,0,0.6,0.2,0.7,0.3c0.5,0.6,1.1,1.2,1.6,1.8c0.5,0.6,1,1.1,1.5,1.7H172c-0.3,0-0.7,0.2-0.9,0.5l-6,12.4h47.8l-6-12.4
		c-0.1-0.3-0.5-0.5-0.9-0.5h-9.3c0.5-0.6,1-1.1,1.5-1.7c0.5-0.6,1.1-1.2,1.6-1.8c0.2-0.2,0.5-0.3,0.7-0.3h7.8
		C208.7,31.2,209.1,31.4,209.3,31.7z"/>
	<path class="st0" d="M187.7,5.7c-7.8,0.7-13.2,8.3-11.8,16.1c1.4,7.9,8.6,10.3,12.2,19.1c0.3,0.8,1.4,0.8,1.8,0
		c4-9.8,12.5-11.7,12.5-21.9C202.4,11.2,195.7,4.9,187.7,5.7z M189,26c-3.9,0-7.1-3.2-7.1-7.1c0-3.9,3.2-7.1,7.1-7.1
		c3.9,0,7.1,3.2,7.1,7.1C196.1,22.9,192.9,26,189,26z"/>
</g>
<g>
	<path class="st0" d="M365.1,170.3c3-0.1,5.5,2.3,5.5,5.2c0.1,3-2.3,5.5-5.2,5.5l-33.8,1c0.5-0.9,0.9-1.9,1-2.9l32.7-1
		c1.4,0,2.5-1.2,2.4-2.6c0-1.4-1.2-2.5-2.6-2.4c-0.8,0-1.5-0.6-1.5-1.4C363.7,171,364.3,170.3,365.1,170.3z"/>
	<path class="st0" d="M329.1,203.1l-0.5-18.3c-0.8,0.4-1.8,0.6-2.8,0.7c0,0-0.1,0-0.1,0l0.5,17.7c0,0.8,0.7,1.4,1.5,1.4
		C328.4,204.6,329.1,203.9,329.1,203.1z"/>
	
		<ellipse transform="matrix(0.9996 -2.924579e-02 2.924579e-02 0.9996 -5.0769 9.5969)" class="st0" cx="325.5" cy="178.4" rx="5.7" ry="5.7"/>
	<path class="st0" d="M332.4,205.7l18.8-0.5c0.4,0,0.7-0.3,0.7-0.7l-0.6-19.5c0-0.4-0.3-0.7-0.7-0.7l-18.8,0.5
		c-0.4,0-0.7,0.3-0.7,0.7l0.6,19.5C331.6,205.4,332,205.7,332.4,205.7z M340.4,198.2l2.2-2.2l-7.5,0.2l-0.1-2.4l7.5-0.2l-2.3-2.1
		l1.4-1.6l5.4,4.8l-5.1,5.1L340.4,198.2z"/>
	<path class="st1" d="M353.7,197.6l12-0.4c0.3,0,0.5-0.2,0.4-0.5l-0.1-3.4l0,0l0,0l-0.1-1.8l-4.5,0.1l-0.1-2l4.5-0.1l-0.1-1.8l0,0
		l0,0l-0.1-3.4c0-0.3-0.2-0.5-0.5-0.4l-12,0.4c-0.3,0-0.5,0.2-0.4,0.5l0.4,12.5C353.2,197.4,353.5,197.6,353.7,197.6z"/>
</g>
<g>
	<path class="st0" d="M196.7,369.1c0.7,1.4,2.1,2.2,3.7,2.2h8.8c1.5,0,2.3-1.2,2.3-2.7v-14.3h3.1c1.9,0,3.1-1.6,3.1-3.5v-12
		c-0.9,2-3.2,3.1-5.6,3.1c-3.6,0-6.3-2.8-6.6-6.4h-12.9c-0.2,3.6-3.2,6.4-6.7,6.4c-1.3,0-2.4-0.3-3.4-0.9L196.7,369.1z M191.5,349
		h15.4c0.4,0,1,0.1,1,0.5v17c0,0.4-0.6,0.4-1,0.4h-6.7c-0.3,0-0.5,0-0.6-0.2l-8.7-16.8C190.7,349.4,191,349,191.5,349z"/>
	<path class="st0" d="M212.3,340.8c3,0,5.4-2.4,5.4-5.4c0-3-2.4-5.4-5.4-5.4s-5.4,2.4-5.4,5.4C206.9,338.4,209.3,340.8,212.3,340.8z
		 M212.3,332.7c1.5,0,2.7,1.2,2.7,2.7c0,1.5-1.2,2.7-2.7,2.7c-1.5,0-2.7-1.2-2.7-2.7C209.6,333.9,210.8,332.7,212.3,332.7z"/>
	<path class="st0" d="M166.2,338.6v-2.7h13.1c0.2,2.3,1.4,4.2,3.3,5.3v27.4h-2.7v-30L166.2,338.6L166.2,338.6z"/>
	<path class="st0" d="M186,340.8c3,0,5.4-2.4,5.4-5.4c0-3-2.4-5.4-5.4-5.4s-5.4,2.4-5.4,5.4C180.6,338.4,183,340.8,186,340.8z
		 M186,332.7c1.5,0,2.7,1.2,2.7,2.7c0,1.5-1.2,2.7-2.7,2.7c-1.5,0-2.7-1.2-2.7-2.7C183.3,333.9,184.5,332.7,186,332.7z"/>
	<path class="st1" d="M162.8,361.2h4.6v-4.7h3.9v4.7h4.6c1.4,0,2.6-1.2,2.6-2.6v-16.1c0-1.4-1.2-2.6-2.6-2.6h-13.1
		c-1.4,0-2.6,1.2-2.6,2.6v16.1C160.3,360,161.4,361.2,162.8,361.2z"/>
</g>
<g>
	<path class="st0" d="M101.2,57.2l5.6,15.9c0.6,1.9,0.1,4-1.3,5.4l-30.3,30.5c-0.6,0.6-1.5,0.3-1.8-0.4l0,0c-0.4-1.2-1.6-2-2.9-1.8
		l-0.1,0c-3,0.5-6-0.5-8.1-2.6l-2.4-2.4l27-27.1l0,0c-0.8-0.8-0.8-2.2,0-3L101.2,57.2L101.2,57.2z"/>
	<path class="st1" d="M74.9,65.6l-5.2,5.3c-0.4,0.4-0.4,1.1,0,1.5l8.3,8.2c0.4,0.4,1.1,0.4,1.5,0l5.2-5.3c0.4-0.4,0.4-1.1,0-1.5
		l-8.3-8.2C76,65.2,75.3,65.2,74.9,65.6z"/>
	<path class="st1" d="M86.9,59.6l-6,6c-0.4,0.4-0.4,1.1,0,1.5l3,3c0.4,0.4,1.1,0.4,1.5,0l6-6c0.4-0.4,0.4-1.1,0-1.5l-3-3
		C88,59.1,87.3,59.1,86.9,59.6z"/>
	<path class="st1" d="M70.5,89.7l6-6c0.4-0.4,0.4-1.1,0-1.5l-6-6c-0.4-0.4-1.1-0.4-1.5,0l-6,6c-0.4,0.4-0.4,1.1,0,1.5l6,6
		C69.4,90.1,70,90.1,70.5,89.7z"/>
	<path class="st0" d="M53.6,84.5l-2.1-2.1l1.4-1.4l-1.4-1.4L50,80.9l-4.3-4.2L45,77.4l4.3,4.2l-2.1,2.1l1.4,1.4l2.1-2.1l2.1,2.1
		l-5.7,5.7l1.4,1.4l2.1-2.1l10,9.9l7.8-7.8l-10.1-10L59,79L53.6,84.5z M64.2,90.8L62.1,93l-2.8-2.8l2.1-2.1L64.2,90.8z M60,86.6
		l-2.1,2.1l-2.1-2.1l2.1-2.1L60,86.6z"/>
</g>
<g>
	<path class="st0" d="M298.8,327.7l8.7,1c0.8,0.1,1.7-0.2,2.3-0.7l19.9-19.7c0.6-0.6,0.8-1.4,0.7-2.2l-0.8-8.8
		c-0.1-0.9-0.6-2.3-1.3-3l-3.5-3.5c-0.1,1.1,0,1.7-0.4,2.4c0.4,0.4,0.6,1,0.7,1.6c0.2,1,0.1,2-0.4,2.9c-0.2,0.3-0.4,0.6-0.6,0.8
		c-0.9,0.9-2.2,1.3-3.4,1c-0.1,0.2-0.3,0.3-0.4,0.5c-0.5,0.4-1,0.7-1.6,0.9l-1.6,2.7c-0.2,0.3-0.4,0.6-0.7,0.9
		c-1.5,1.5-3.8,1.7-5.5,0.7l-20.1-11.9c-1-0.6-1.8-1.6-2.1-2.8c-0.3-1.2-0.2-2.5,0.4-3.6l1.3-2.4l-15.7,15.5
		c-1.3,1.3-1.2,3.8,0.1,5.1l21.2,21.5C296.6,327,297.9,327.6,298.8,327.7z M328.4,298.8l-0.1,2.5l-8.7,8.6l1,2.7l8.4-8.3l0.1,2
		c0,0.4-0.3,0.7-0.6,0.9l-19.9,19.7c-0.3,0.3-0.5,0.6-0.9,0.5l-2-0.1l8.6-8.5l-2.3-1.4l-9.2,9.1l-2.5,0L328.4,298.8z"/>
	<path class="st0" d="M322.1,293.1l0.4-0.7c0.4-0.7,0.2-1.6-0.5-2.1l0,0c-0.7-0.4-1.6-0.2-2.1,0.5l-3.4,5.7
		c-0.4,0.7-0.2,1.6,0.5,2.1l0,0c0.7,0.4,1.6,0.2,2.1-0.5l0.4-0.7c0.2-0.4,0.7-0.5,1-0.3l0,0c0.8,0.5,1.9,0.2,2.4-0.6l0,0
		c0.5-0.8,0.2-1.9-0.6-2.4l0,0C322,294,321.9,293.5,322.1,293.1z"/>
	
		<ellipse transform="matrix(0.5115 -0.8593 0.8593 0.5115 -97.0834 420.6263)" class="st2" cx="321.4" cy="295.7" rx="0.8" ry="0.8"/>
	<path class="st0" d="M299,286.2c-0.2-0.1-0.3-0.5-0.2-0.7l4.9-8.3c0.1-0.2,0.5-0.3,0.7-0.2l0.4,0.3c0.2,0.1,0.3,0.5,0.2,0.7
		l-4.9,8.3c-0.1,0.2-0.5,0.3-0.7,0.2L299,286.2z"/>
	<path class="st0" d="M305,293.9l-0.4-0.3c-0.2-0.1-0.3-0.5-0.2-0.7l6.8-11.3c0.1-0.2,0.5-0.3,0.7-0.2l0.4,0.3
		c0.2,0.1,0.3,0.5,0.2,0.7l-6.8,11.3C305.6,294,305.3,294.1,305,293.9z"/>
	<path class="st0" d="M308.4,295.3l6.8-11.3c0.1-0.2,0.5-0.3,0.7-0.2l0.4,0.3c0.2,0.1,0.3,0.5,0.2,0.7l-6.8,11.3
		c-0.1,0.2-0.5,0.3-0.7,0.2l-0.4-0.3C308.3,295.9,308.2,295.6,308.4,295.3z"/>
	<path class="st0" d="M302.2,288.7l5.5-9.2c0.1-0.2,0.5-0.3,0.7-0.2l0.4,0.3c0.2,0.1,0.3,0.5,0.2,0.7l-5.5,9.2
		c-0.1,0.2-0.5,0.3-0.7,0.2l-0.4-0.3C302.2,289.3,302.1,289,302.2,288.7z"/>
	<path class="st1" d="M291.8,291.4l20.1,11.9c1.2,0.7,2.8,0.3,3.5-0.9l1.6-2.7c-0.2-0.1-0.3-0.1-0.4-0.2c-1.2-0.7-1.6-2.3-0.9-3.5
		l3.3-5.6c0.7-1.1,2.1-1.6,3.3-1.1c0.2,0.1,0.4,0.3,0.6,0.4l1.6-2.7c0.7-1.2,0.3-2.8-0.9-3.5l-20.1-11.9c-1.2-0.7-2.8-0.3-3.5,0.9
		l-9.1,15.3C290.2,289.1,290.6,290.6,291.8,291.4z M302.2,273.9l17.5,10.4l-9.1,15.3l-17.5-10.4L302.2,273.9z"/>
</g>
<path class="st0" d="M49.1,287.5c7.2-7.1,49.3,20,51.9,22.6c1.4,1.5,2.7,3.5,1.4,4.8c-0.5,0.4-1.6,0.6-3.3,0.4l0,0l-2,6.7
	c-0.3,0.9-1.3,1.4-2.1,1l-0.6-0.3c-1.1-0.5-1.8-1.4-2.2-2.5l-2-6.7c-2.7-0.7-5.7-1.6-8.8-2.7l2.8,14.1c0.2,1.1-0.8,2.1-1.9,1.8
	l-1.1-0.3c-1.9-0.5-3.5-1.7-4.5-3.4l-10.3-18.1c-6.2-2.7-11.4-5.6-13.7-8c-0.6-0.6-1.2-1.3-1.8-2l6.2,2.4l1.6-1.3l-9.6-3.7
	C47.9,290.6,47.6,288.9,49.1,287.5z"/>
<g>
	<path class="st0" d="M324.9,83.6l-9.4-22.2c-0.3-0.8-0.9-1.3-1.7-1.7l-22-8.9c-0.6-0.2-1.2-0.1-1.7,0.4l-2.3,2.3
		c-0.6,0.6-0.7,1.6-0.1,2.2l0.8,0.8c0.2,0.2,0.2,0.4,0.1,0.6L274,72c-1.4,1.4-1.6,3.8-0.2,5.1l0.9,0.8l13.7-13.9l23.3,23L298,101
		l1,0.9c1.4,1.4,3.7,1,5-0.4l14.6-14.8c0.2-0.2,0.5,0,0.7,0.1l0.8,0.8c0.6,0.6,1.5,0.4,2.1-0.2l2.3-2.3
		C325,84.8,325.2,84.2,324.9,83.6z M297.8,65.7l-5.6-5.5l2.7-2.8l5.6,5.5L297.8,65.7z M306.7,74.4l-5.6-5.5l2.7-2.8l5.6,5.5
		L306.7,74.4z M310,77.7l2.7-2.8l5.6,5.5l-2.7,2.8L310,77.7z"/>
	<path class="st0" d="M287.4,79.1l-1.6-1.6l-2.2,2.2l-0.7-0.7l2.2-2.2l-1.6-1.6c-0.6-0.6-1.5-0.6-2.1,0l-3.4,3.5
		c-0.6,0.6-0.6,1.5,0,2.1l3.9,3.9c0.6,0.6,1.5,0.6,2.1,0l3.4-3.5C288,80.6,288,79.7,287.4,79.1z"/>
	<path class="st1" d="M294.1,85.7l-1.6-1.6l-2.2,2.2l-0.7-0.7l2.2-2.2l-1.6-1.6c-0.6-0.6-1.5-0.6-2.1,0l-3.4,3.5
		c-0.6,0.6-0.6,1.5,0,2.1l3.9,3.9c0.6,0.6,1.5,0.6,2.1,0l3.4-3.5C294.7,87.2,294.7,86.3,294.1,85.7z"/>
	<path class="st0" d="M300.9,92.4l-1.6-1.6l-2.2,2.2l-0.7-0.7l2.2-2.2l-1.6-1.6c-0.6-0.6-1.5-0.6-2.1,0l-3.4,3.5
		c-0.6,0.6-0.6,1.5,0,2.1l3.9,3.9c0.6,0.6,1.5,0.6,2.1,0l3.4-3.5C301.4,93.9,301.4,93,300.9,92.4z"/>
	<path class="st1" d="M297,76.1l-1.6-1.6l-2.2,2.2l-0.7-0.7l2.2-2.2l-1.6-1.6c-0.6-0.6-1.5-0.6-2.1,0l-3.4,3.5
		c-0.6,0.6-0.6,1.5,0,2.1l3.9,3.9c0.6,0.6,1.5,0.6,2.1,0l3.4-3.5C297.6,77.6,297.6,76.7,297,76.1z"/>
	<path class="st1" d="M303.8,82.8l-1.6-1.6l-2.2,2.2l-0.7-0.7l2.2-2.2l-1.6-1.6c-0.6-0.6-1.5-0.6-2.1,0l-3.4,3.5
		c-0.6,0.6-0.6,1.5,0,2.1l3.9,3.9c0.6,0.6,1.5,0.6,2.1,0l3.4-3.5C304.4,84.4,304.4,83.4,303.8,82.8z"/>
</g>
</svg>
