<?xml version="1.0" encoding="utf-8"?>
<!-- Generator: Adobe Illustrator 21.0.2, SVG Export Plug-In . SVG Version: 6.00 Build 0)  -->
<svg version="1.1" id="Layer_1" xmlns="http://www.w3.org/2000/svg" xmlns:xlink="http://www.w3.org/1999/xlink" x="0px" y="0px"
	 viewBox="0 0 588.7 134.3" style="enable-background:new 0 0 588.7 134.3;" xml:space="preserve">
<style type="text/css">
	.st0{fill:#C8D0D5;}
</style>
<g>
	<g>
		<g>
			<g>
				<path class="st0" d="M486,89.8c-1.1,0-2,0.9-2,2v13.6c0,1.1,0.9,2,2,2h36.5c1.1,0,2-0.9,2-2V91.8c0-1.1-0.9-2-2-2H486z
					 M486,104.8c0,1.1-0.2,2-0.4,2s-0.4-0.9-0.4-2V92.5c0-1.1,0.2-2,0.4-2s0.4,0.9,0.4,2V104.8z M487.7,104.8c0,1.1-0.2,2-0.4,2
					c-0.2,0-0.4-0.9-0.4-2V92.5c0-1.1,0.2-2,0.4-2c0.2,0,0.4,0.9,0.4,2V104.8z M489.5,104.8c0,1.1-0.2,2-0.4,2c-0.2,0-0.4-0.9-0.4-2
					V92.5c0-1.1,0.2-2,0.4-2c0.2,0,0.4,0.9,0.4,2V104.8z M491.3,104.8c0,1.1-0.2,2-0.4,2c-0.2,0-0.4-0.9-0.4-2V92.5
					c0-1.1,0.2-2,0.4-2c0.2,0,0.4,0.9,0.4,2V104.8z M493.1,104.8c0,1.1-0.2,2-0.4,2c-0.2,0-0.4-0.9-0.4-2V92.5c0-1.1,0.2-2,0.4-2
					c0.2,0,0.4,0.9,0.4,2V104.8z M494.9,104.8c0,1.1-0.2,2-0.4,2s-0.4-0.9-0.4-2V92.5c0-1.1,0.2-2,0.4-2s0.4,0.9,0.4,2V104.8z
					 M496.6,104.8c0,1.1-0.2,2-0.4,2c-0.2,0-0.4-0.9-0.4-2V92.5c0-1.1,0.2-2,0.4-2c0.2,0,0.4,0.9,0.4,2V104.8z M498.4,104.8
					c0,1.1-0.2,2-0.4,2s-0.4-0.9-0.4-2V92.5c0-1.1,0.2-2,0.4-2s0.4,0.9,0.4,2V104.8z M500.2,104.8c0,1.1-0.2,2-0.4,2s-0.4-0.9-0.4-2
					V92.5c0-1.1,0.2-2,0.4-2s0.4,0.9,0.4,2V104.8z M502,104.8c0,1.1-0.2,2-0.4,2s-0.4-0.9-0.4-2V92.5c0-1.1,0.2-2,0.4-2
					s0.4,0.9,0.4,2V104.8z M503.7,104.8c0,1.1-0.2,2-0.4,2s-0.4-0.9-0.4-2V92.5c0-1.1,0.2-2,0.4-2s0.4,0.9,0.4,2V104.8z
					 M505.5,104.8c0,1.1-0.2,2-0.4,2c-0.2,0-0.4-0.9-0.4-2V92.5c0-1.1,0.2-2,0.4-2c0.2,0,0.4,0.9,0.4,2V104.8z M507.3,104.8
					c0,1.1-0.2,2-0.4,2s-0.4-0.9-0.4-2V92.5c0-1.1,0.2-2,0.4-2s0.4,0.9,0.4,2V104.8z M509.1,104.8c0,1.1-0.2,2-0.4,2s-0.4-0.9-0.4-2
					V92.5c0-1.1,0.2-2,0.4-2s0.4,0.9,0.4,2V104.8z M510.8,104.8c0,1.1-0.2,2-0.4,2s-0.4-0.9-0.4-2V92.5c0-1.1,0.2-2,0.4-2
					s0.4,0.9,0.4,2V104.8z M512.6,104.8c0,1.1-0.2,2-0.4,2c-0.2,0-0.4-0.9-0.4-2V92.5c0-1.1,0.2-2,0.4-2c0.2,0,0.4,0.9,0.4,2V104.8z
					 M514.4,104.8c0,1.1-0.2,2-0.4,2s-0.4-0.9-0.4-2V92.5c0-1.1,0.2-2,0.4-2s0.4,0.9,0.4,2V104.8z M516.2,104.8c0,1.1-0.2,2-0.4,2
					s-0.4-0.9-0.4-2V92.5c0-1.1,0.2-2,0.4-2s0.4,0.9,0.4,2V104.8z M518,104.8c0,1.1-0.2,2-0.4,2s-0.4-0.9-0.4-2V92.5
					c0-1.1,0.2-2,0.4-2s0.4,0.9,0.4,2V104.8z M519.7,104.8c0,1.1-0.2,2-0.4,2c-0.2,0-0.4-0.9-0.4-2V92.5c0-1.1,0.2-2,0.4-2
					c0.2,0,0.4,0.9,0.4,2V104.8z M521.5,104.8c0,1.1-0.2,2-0.4,2s-0.4-0.9-0.4-2V92.5c0-1.1,0.2-2,0.4-2s0.4,0.9,0.4,2V104.8z
					 M523.3,104.8c0,1.1-0.2,2-0.4,2s-0.4-0.9-0.4-2V92.5c0-1.1,0.2-2,0.4-2s0.4,0.9,0.4,2V104.8z"/>
			</g>
		</g>
		<g>
			<g>
				<path class="st0" d="M444.2,89.8c-1.1,0-2,0.9-2,2v13.6c0,1.1,0.9,2,2,2h36.5c1.1,0,2-0.9,2-2V91.8c0-1.1-0.9-2-2-2H444.2z
					 M444.2,104.8c0,1.1-0.2,2-0.4,2s-0.4-0.9-0.4-2V92.5c0-1.1,0.2-2,0.4-2s0.4,0.9,0.4,2V104.8z M445.9,104.8c0,1.1-0.2,2-0.4,2
					s-0.4-0.9-0.4-2V92.5c0-1.1,0.2-2,0.4-2s0.4,0.9,0.4,2V104.8z M447.7,104.8c0,1.1-0.2,2-0.4,2s-0.4-0.9-0.4-2V92.5
					c0-1.1,0.2-2,0.4-2s0.4,0.9,0.4,2V104.8z M449.5,104.8c0,1.1-0.2,2-0.4,2c-0.2,0-0.4-0.9-0.4-2V92.5c0-1.1,0.2-2,0.4-2
					c0.2,0,0.4,0.9,0.4,2V104.8z M451.3,104.8c0,1.1-0.2,2-0.4,2c-0.2,0-0.4-0.9-0.4-2V92.5c0-1.1,0.2-2,0.4-2c0.2,0,0.4,0.9,0.4,2
					V104.8z M453,104.8c0,1.1-0.2,2-0.4,2c-0.2,0-0.4-0.9-0.4-2V92.5c0-1.1,0.2-2,0.4-2c0.2,0,0.4,0.9,0.4,2V104.8z M454.8,104.8
					c0,1.1-0.2,2-0.4,2c-0.2,0-0.4-0.9-0.4-2V92.5c0-1.1,0.2-2,0.4-2c0.2,0,0.4,0.9,0.4,2V104.8z M456.6,104.8c0,1.1-0.2,2-0.4,2
					c-0.2,0-0.4-0.9-0.4-2V92.5c0-1.1,0.2-2,0.4-2c0.2,0,0.4,0.9,0.4,2V104.8z M458.4,104.8c0,1.1-0.2,2-0.4,2s-0.4-0.9-0.4-2V92.5
					c0-1.1,0.2-2,0.4-2s0.4,0.9,0.4,2V104.8z M460.2,104.8c0,1.1-0.2,2-0.4,2s-0.4-0.9-0.4-2V92.5c0-1.1,0.2-2,0.4-2s0.4,0.9,0.4,2
					V104.8z M461.9,104.8c0,1.1-0.2,2-0.4,2s-0.4-0.9-0.4-2V92.5c0-1.1,0.2-2,0.4-2s0.4,0.9,0.4,2V104.8z M463.7,104.8
					c0,1.1-0.2,2-0.4,2s-0.4-0.9-0.4-2V92.5c0-1.1,0.2-2,0.4-2s0.4,0.9,0.4,2V104.8z M465.5,104.8c0,1.1-0.2,2-0.4,2s-0.4-0.9-0.4-2
					V92.5c0-1.1,0.2-2,0.4-2s0.4,0.9,0.4,2V104.8z M467.3,104.8c0,1.1-0.2,2-0.4,2s-0.4-0.9-0.4-2V92.5c0-1.1,0.2-2,0.4-2
					s0.4,0.9,0.4,2V104.8z M469,104.8c0,1.1-0.2,2-0.4,2s-0.4-0.9-0.4-2V92.5c0-1.1,0.2-2,0.4-2s0.4,0.9,0.4,2V104.8z M470.8,104.8
					c0,1.1-0.2,2-0.4,2c-0.2,0-0.4-0.9-0.4-2V92.5c0-1.1,0.2-2,0.4-2c0.2,0,0.4,0.9,0.4,2V104.8z M472.6,104.8c0,1.1-0.2,2-0.4,2
					s-0.4-0.9-0.4-2V92.5c0-1.1,0.2-2,0.4-2s0.4,0.9,0.4,2V104.8z M474.4,104.8c0,1.1-0.2,2-0.4,2s-0.4-0.9-0.4-2V92.5
					c0-1.1,0.2-2,0.4-2s0.4,0.9,0.4,2V104.8z M476.1,104.8c0,1.1-0.2,2-0.4,2s-0.4-0.9-0.4-2V92.5c0-1.1,0.2-2,0.4-2s0.4,0.9,0.4,2
					V104.8z M477.9,104.8c0,1.1-0.2,2-0.4,2c-0.2,0-0.4-0.9-0.4-2V92.5c0-1.1,0.2-2,0.4-2c0.2,0,0.4,0.9,0.4,2V104.8z M479.7,104.8
					c0,1.1-0.2,2-0.4,2c-0.2,0-0.4-0.9-0.4-2V92.5c0-1.1,0.2-2,0.4-2c0.2,0,0.4,0.9,0.4,2V104.8z M481.5,104.8c0,1.1-0.2,2-0.4,2
					s-0.4-0.9-0.4-2V92.5c0-1.1,0.2-2,0.4-2s0.4,0.9,0.4,2V104.8z"/>
			</g>
		</g>
		<g>
			<g>
				<path class="st0" d="M444.2,70.9c-1.1,0-2,0.9-2,2v13.6c0,1.1,0.9,2,2,2h36.5c1.1,0,2-0.9,2-2V72.9c0-1.1-0.9-2-2-2H444.2z
					 M444.2,85.9c0,1.1-0.2,2-0.4,2s-0.4-0.9-0.4-2V73.6c0-1.1,0.2-2,0.4-2s0.4,0.9,0.4,2V85.9z M445.9,85.9c0,1.1-0.2,2-0.4,2
					s-0.4-0.9-0.4-2V73.6c0-1.1,0.2-2,0.4-2s0.4,0.9,0.4,2V85.9z M447.7,85.9c0,1.1-0.2,2-0.4,2s-0.4-0.9-0.4-2V73.6
					c0-1.1,0.2-2,0.4-2s0.4,0.9,0.4,2V85.9z M449.5,85.9c0,1.1-0.2,2-0.4,2c-0.2,0-0.4-0.9-0.4-2V73.6c0-1.1,0.2-2,0.4-2
					c0.2,0,0.4,0.9,0.4,2V85.9z M451.3,85.9c0,1.1-0.2,2-0.4,2c-0.2,0-0.4-0.9-0.4-2V73.6c0-1.1,0.2-2,0.4-2c0.2,0,0.4,0.9,0.4,2
					V85.9z M453,85.9c0,1.1-0.2,2-0.4,2c-0.2,0-0.4-0.9-0.4-2V73.6c0-1.1,0.2-2,0.4-2c0.2,0,0.4,0.9,0.4,2V85.9z M454.8,85.9
					c0,1.1-0.2,2-0.4,2c-0.2,0-0.4-0.9-0.4-2V73.6c0-1.1,0.2-2,0.4-2c0.2,0,0.4,0.9,0.4,2V85.9z M456.6,85.9c0,1.1-0.2,2-0.4,2
					c-0.2,0-0.4-0.9-0.4-2V73.6c0-1.1,0.2-2,0.4-2c0.2,0,0.4,0.9,0.4,2V85.9z M458.4,85.9c0,1.1-0.2,2-0.4,2s-0.4-0.9-0.4-2V73.6
					c0-1.1,0.2-2,0.4-2s0.4,0.9,0.4,2V85.9z M460.2,85.9c0,1.1-0.2,2-0.4,2s-0.4-0.9-0.4-2V73.6c0-1.1,0.2-2,0.4-2s0.4,0.9,0.4,2
					V85.9z M461.9,85.9c0,1.1-0.2,2-0.4,2s-0.4-0.9-0.4-2V73.6c0-1.1,0.2-2,0.4-2s0.4,0.9,0.4,2V85.9z M463.7,85.9
					c0,1.1-0.2,2-0.4,2s-0.4-0.9-0.4-2V73.6c0-1.1,0.2-2,0.4-2s0.4,0.9,0.4,2V85.9z M465.5,85.9c0,1.1-0.2,2-0.4,2s-0.4-0.9-0.4-2
					V73.6c0-1.1,0.2-2,0.4-2s0.4,0.9,0.4,2V85.9z M467.3,85.9c0,1.1-0.2,2-0.4,2s-0.4-0.9-0.4-2V73.6c0-1.1,0.2-2,0.4-2
					s0.4,0.9,0.4,2V85.9z M469,85.9c0,1.1-0.2,2-0.4,2s-0.4-0.9-0.4-2V73.6c0-1.1,0.2-2,0.4-2s0.4,0.9,0.4,2V85.9z M470.8,85.9
					c0,1.1-0.2,2-0.4,2c-0.2,0-0.4-0.9-0.4-2V73.6c0-1.1,0.2-2,0.4-2c0.2,0,0.4,0.9,0.4,2V85.9z M472.6,85.9c0,1.1-0.2,2-0.4,2
					s-0.4-0.9-0.4-2V73.6c0-1.1,0.2-2,0.4-2s0.4,0.9,0.4,2V85.9z M474.4,85.9c0,1.1-0.2,2-0.4,2s-0.4-0.9-0.4-2V73.6
					c0-1.1,0.2-2,0.4-2s0.4,0.9,0.4,2V85.9z M476.1,85.9c0,1.1-0.2,2-0.4,2s-0.4-0.9-0.4-2V73.6c0-1.1,0.2-2,0.4-2s0.4,0.9,0.4,2
					V85.9z M477.9,85.9c0,1.1-0.2,2-0.4,2c-0.2,0-0.4-0.9-0.4-2V73.6c0-1.1,0.2-2,0.4-2c0.2,0,0.4,0.9,0.4,2V85.9z M479.7,85.9
					c0,1.1-0.2,2-0.4,2c-0.2,0-0.4-0.9-0.4-2V73.6c0-1.1,0.2-2,0.4-2c0.2,0,0.4,0.9,0.4,2V85.9z M481.5,85.9c0,1.1-0.2,2-0.4,2
					s-0.4-0.9-0.4-2V73.6c0-1.1,0.2-2,0.4-2s0.4,0.9,0.4,2V85.9z"/>
			</g>
		</g>
		<path class="st0" d="M530.5,100c0.4,0,0.6,0.3,0.4,0.7l-13.2,27.5c-0.2,0.4-0.6,1-0.9,1.3l-7.7,4.7c-0.4,0.1-1.1,0.2-1.5,0.2
			h-80.2c-0.4,0-1.1-0.2-1.4-0.4l-1.1-1.7c0-0.4-0.1-0.8-0.1-0.8c0,0,0.1-0.4,0.1-0.8l-1.2-4.9c-0.2-0.4-0.5-0.7-0.5-0.7
			s-0.3-0.3-0.6-0.6l-6.7-13c-0.1-0.4-0.2-1.1-0.2-1.5v-5c0-0.4,0.4-0.8,0.8-0.8h71.2c0.4,0,0.8,0,0.8,0s0.1-0.3,0.3-0.7l3-3
			c0.4-0.2,1.1-0.3,1.5-0.3H530.5z"/>
		<g>
			<g>
				<path class="st0" d="M431.9,72.6c-1.1,0-2-0.9-2-2V68c0-1.1,0.9-2,2-2h0.4c1.1,0,2-0.9,2-2v-0.4c0-1.1-0.9-2-2-2h-0.4
					c-1.1,0-2-0.9-2-2v-6.9c0-1.1-0.2-2-0.5-2s-0.5,0.9-0.5,2v6.9c0,1.1-0.9,2-2,2h-2.6c-1.1,0-2,0.9-2,2V64c0,1.1,0.9,2,2,2h2.6
					c1.1,0,2,0.9,2,2v2.6c0,1.1-0.9,2-2,2h-12.4c-1.1,0-2,0.7-2,1.6c0,0.9,0.9,1.6,2,1.6h1.5c1.1,0,2,0.9,2,2v23.3c0,1.1,0.9,2,2,2
					h17.8c1.1,0,2-0.9,2-2V77.8c0-1.1,0.8-2.5,1.7-3l2-1.2c1-0.6,0.8-1-0.3-1H431.9z M436.4,92.4c0,1.1-0.9,2-2,2h-2.6
					c-1.1,0-2-0.9-2-2v-3.6c0-1.1,0.9-2,2-2h2.6c1.1,0,2,0.9,2,2V92.4z M436.4,80.4c0,1.1-0.9,2-2,2h-2.6c-1.1,0-2-0.9-2-2V80
					c0-1.1,0.9-2,2-2h2.6c1.1,0,2,0.9,2,2V80.4z"/>
			</g>
		</g>
	</g>
</g>
<g>
	<g>
		<g>
			<g>
				<path class="st0" d="M93.8,81c-1.1,0-2,0.9-2,2v33.1c0,1.1,0.9,2,2,2H175c1.1,0,2-0.9,2-2V83c0-1.1-0.9-2-2-2H93.8z M95.9,114.8
					c0,1.1-0.3,2-0.8,2c-0.4,0-0.8-0.9-0.8-2V84.4c0-1.1,0.3-2,0.8-2c0.4,0,0.8,0.9,0.8,2V114.8z M99.6,114.8c0,1.1-0.3,2-0.8,2
					s-0.8-0.9-0.8-2V84.4c0-1.1,0.3-2,0.8-2s0.8,0.9,0.8,2V114.8z M103.4,114.8c0,1.1-0.3,2-0.8,2c-0.4,0-0.8-0.9-0.8-2V84.4
					c0-1.1,0.3-2,0.8-2c0.4,0,0.8,0.9,0.8,2V114.8z M107.1,114.8c0,1.1-0.3,2-0.8,2s-0.8-0.9-0.8-2V84.4c0-1.1,0.3-2,0.8-2
					s0.8,0.9,0.8,2V114.8z M110.9,114.8c0,1.1-0.3,2-0.8,2c-0.4,0-0.8-0.9-0.8-2V84.4c0-1.1,0.3-2,0.8-2c0.4,0,0.8,0.9,0.8,2V114.8z
					 M114.6,114.8c0,1.1-0.3,2-0.8,2c-0.4,0-0.8-0.9-0.8-2V84.4c0-1.1,0.3-2,0.8-2c0.4,0,0.8,0.9,0.8,2V114.8z M118.3,114.8
					c0,1.1-0.3,2-0.8,2s-0.8-0.9-0.8-2V84.4c0-1.1,0.3-2,0.8-2s0.8,0.9,0.8,2V114.8z M122.1,114.8c0,1.1-0.3,2-0.8,2
					c-0.4,0-0.8-0.9-0.8-2V84.4c0-1.1,0.3-2,0.8-2c0.4,0,0.8,0.9,0.8,2V114.8z M125.8,114.8c0,1.1-0.3,2-0.8,2c-0.4,0-0.8-0.9-0.8-2
					V84.4c0-1.1,0.3-2,0.8-2c0.4,0,0.8,0.9,0.8,2V114.8z M129.6,114.8c0,1.1-0.3,2-0.8,2c-0.4,0-0.8-0.9-0.8-2V84.4
					c0-1.1,0.3-2,0.8-2c0.4,0,0.8,0.9,0.8,2V114.8z M133.3,114.8c0,1.1-0.3,2-0.8,2s-0.8-0.9-0.8-2V84.4c0-1.1,0.3-2,0.8-2
					s0.8,0.9,0.8,2V114.8z M137,114.8c0,1.1-0.3,2-0.8,2c-0.4,0-0.8-0.9-0.8-2V84.4c0-1.1,0.3-2,0.8-2c0.4,0,0.8,0.9,0.8,2V114.8z
					 M140.8,114.8c0,1.1-0.3,2-0.8,2s-0.8-0.9-0.8-2V84.4c0-1.1,0.3-2,0.8-2s0.8,0.9,0.8,2V114.8z M144.5,114.8c0,1.1-0.3,2-0.8,2
					s-0.8-0.9-0.8-2V84.4c0-1.1,0.3-2,0.8-2s0.8,0.9,0.8,2V114.8z M148.3,114.8c0,1.1-0.3,2-0.8,2s-0.8-0.9-0.8-2V84.4
					c0-1.1,0.3-2,0.8-2s0.8,0.9,0.8,2V114.8z M152,114.8c0,1.1-0.3,2-0.8,2c-0.4,0-0.8-0.9-0.8-2V84.4c0-1.1,0.3-2,0.8-2
					c0.4,0,0.8,0.9,0.8,2V114.8z M155.7,114.8c0,1.1-0.3,2-0.8,2s-0.8-0.9-0.8-2V84.4c0-1.1,0.3-2,0.8-2s0.8,0.9,0.8,2V114.8z
					 M159.5,114.8c0,1.1-0.3,2-0.8,2s-0.8-0.9-0.8-2V84.4c0-1.1,0.3-2,0.8-2s0.8,0.9,0.8,2V114.8z M163.2,114.8c0,1.1-0.3,2-0.8,2
					c-0.4,0-0.8-0.9-0.8-2V84.4c0-1.1,0.3-2,0.8-2c0.4,0,0.8,0.9,0.8,2V114.8z M167,114.8c0,1.1-0.3,2-0.8,2s-0.8-0.9-0.8-2V84.4
					c0-1.1,0.3-2,0.8-2s0.8,0.9,0.8,2V114.8z M170.7,114.8c0,1.1-0.3,2-0.8,2c-0.4,0-0.8-0.9-0.8-2V84.4c0-1.1,0.3-2,0.8-2
					c0.4,0,0.8,0.9,0.8,2V114.8z M174.4,114.8c0,1.1-0.3,2-0.8,2s-0.8-0.9-0.8-2V84.4c0-1.1,0.3-2,0.8-2s0.8,0.9,0.8,2V114.8z"/>
			</g>
		</g>
		<g>
			<g>
				<path class="st0" d="M6.4,81c-1.1,0-2,0.9-2,2v33.1c0,1.1,0.9,2,2,2h81.1c1.1,0,2-0.9,2-2V83c0-1.1-0.9-2-2-2H6.4z M8.4,114.8
					c0,1.1-0.3,2-0.8,2s-0.8-0.9-0.8-2V84.4c0-1.1,0.3-2,0.8-2s0.8,0.9,0.8,2V114.8z M12.2,114.8c0,1.1-0.3,2-0.8,2
					c-0.4,0-0.8-0.9-0.8-2V84.4c0-1.1,0.3-2,0.8-2c0.4,0,0.8,0.9,0.8,2V114.8z M15.9,114.8c0,1.1-0.3,2-0.8,2c-0.4,0-0.8-0.9-0.8-2
					V84.4c0-1.1,0.3-2,0.8-2c0.4,0,0.8,0.9,0.8,2V114.8z M19.6,114.8c0,1.1-0.3,2-0.8,2s-0.8-0.9-0.8-2V84.4c0-1.1,0.3-2,0.8-2
					s0.8,0.9,0.8,2V114.8z M23.4,114.8c0,1.1-0.3,2-0.8,2c-0.4,0-0.8-0.9-0.8-2V84.4c0-1.1,0.3-2,0.8-2c0.4,0,0.8,0.9,0.8,2V114.8z
					 M27.1,114.8c0,1.1-0.3,2-0.8,2c-0.4,0-0.8-0.9-0.8-2V84.4c0-1.1,0.3-2,0.8-2c0.4,0,0.8,0.9,0.8,2V114.8z M30.9,114.8
					c0,1.1-0.3,2-0.8,2c-0.4,0-0.8-0.9-0.8-2V84.4c0-1.1,0.3-2,0.8-2c0.4,0,0.8,0.9,0.8,2V114.8z M34.6,114.8c0,1.1-0.3,2-0.8,2
					s-0.8-0.9-0.8-2V84.4c0-1.1,0.3-2,0.8-2s0.8,0.9,0.8,2V114.8z M38.3,114.8c0,1.1-0.3,2-0.8,2s-0.8-0.9-0.8-2V84.4
					c0-1.1,0.3-2,0.8-2s0.8,0.9,0.8,2V114.8z M42.1,114.8c0,1.1-0.3,2-0.8,2c-0.4,0-0.8-0.9-0.8-2V84.4c0-1.1,0.3-2,0.8-2
					c0.4,0,0.8,0.9,0.8,2V114.8z M45.8,114.8c0,1.1-0.3,2-0.8,2s-0.8-0.9-0.8-2V84.4c0-1.1,0.3-2,0.8-2s0.8,0.9,0.8,2V114.8z
					 M49.6,114.8c0,1.1-0.3,2-0.8,2c-0.4,0-0.8-0.9-0.8-2V84.4c0-1.1,0.3-2,0.8-2c0.4,0,0.8,0.9,0.8,2V114.8z M53.3,114.8
					c0,1.1-0.3,2-0.8,2c-0.4,0-0.8-0.9-0.8-2V84.4c0-1.1,0.3-2,0.8-2c0.4,0,0.8,0.9,0.8,2V114.8z M57,114.8c0,1.1-0.3,2-0.8,2
					c-0.4,0-0.8-0.9-0.8-2V84.4c0-1.1,0.3-2,0.8-2c0.4,0,0.8,0.9,0.8,2V114.8z M60.8,114.8c0,1.1-0.3,2-0.8,2s-0.8-0.9-0.8-2V84.4
					c0-1.1,0.3-2,0.8-2s0.8,0.9,0.8,2V114.8z M64.5,114.8c0,1.1-0.3,2-0.8,2c-0.4,0-0.8-0.9-0.8-2V84.4c0-1.1,0.3-2,0.8-2
					c0.4,0,0.8,0.9,0.8,2V114.8z M68.3,114.8c0,1.1-0.3,2-0.8,2c-0.4,0-0.8-0.9-0.8-2V84.4c0-1.1,0.3-2,0.8-2c0.4,0,0.8,0.9,0.8,2
					V114.8z M72,114.8c0,1.1-0.3,2-0.8,2c-0.4,0-0.8-0.9-0.8-2V84.4c0-1.1,0.3-2,0.8-2c0.4,0,0.8,0.9,0.8,2V114.8z M75.7,114.8
					c0,1.1-0.3,2-0.8,2s-0.8-0.9-0.8-2V84.4c0-1.1,0.3-2,0.8-2s0.8,0.9,0.8,2V114.8z M79.5,114.8c0,1.1-0.3,2-0.8,2
					c-0.4,0-0.8-0.9-0.8-2V84.4c0-1.1,0.3-2,0.8-2c0.4,0,0.8,0.9,0.8,2V114.8z M83.2,114.8c0,1.1-0.3,2-0.8,2c-0.4,0-0.8-0.9-0.8-2
					V84.4c0-1.1,0.3-2,0.8-2c0.4,0,0.8,0.9,0.8,2V114.8z M87,114.8c0,1.1-0.3,2-0.8,2s-0.8-0.9-0.8-2V84.4c0-1.1,0.3-2,0.8-2
					s0.8,0.9,0.8,2V114.8z"/>
			</g>
		</g>
		<circle class="st0" cx="299.7" cy="129.6" r="4.8"/>
		<circle class="st0" cx="316" cy="129.6" r="4.8"/>
		<circle class="st0" cx="283.9" cy="129.6" r="4.8"/>
		<circle class="st0" cx="226.2" cy="129.6" r="4.8"/>
		<circle class="st0" cx="209.8" cy="129.6" r="4.8"/>
		<circle class="st0" cx="193.5" cy="129.6" r="4.8"/>
		<path class="st0" d="M333.1,123.2c0-1,0-1.8,0-2.7c-0.8,0-1.5-0.1-2.5-0.1c0-3.4,0-6.9,0-10.4c-1.3,0-2.5,0-3.7,0
			c0,3.5,0,6.9,0,10.3c-0.8,0-1.4,0-2.3,0c0-1.2,0-2.3,0-3.5c0-1.6,0-3.2,0-4.8c0-4.3-1.9-6.1-6.2-6.1c-3.3,0-6.7,0-10.2,0
			c0-3.1,0-6.2,0-9.3c-9.5,0-18.9,0-28.3,0c-0.1-2-1.3-2-2.8-2c-6.2,0.1-12.3,0.1-18.5,0c-1.4,0-2.3,0.2-2.2,1.9
			c-8.2,0-16.3,0-24.6,0c0.2-1.8-0.9-1.9-2.2-1.9c-3.7,0.1-7.5,0.1-11.2,0c-1.4,0-2.4,0.1-2.3,1.9c-0.6,0-1.1,0-1.7,0
			c0.1-1.8-1-1.9-2.5-1.9c-3.7,0.1-7.4,0-11.1,0c-1.3,0-2.6-0.2-2.1,1.9c-5.2,0-10.2,0-15.4,0c0,8,0,15.9,0,23.9c-0.9,0-1.6,0-2.5,0
			c0-4,0-8,0-12c-0.8,0-1.4,0-2.4,0c0,4.9,0,9.8,0,14.9H333.1z M296.1,105.2c0-4.3,0-4.3,4.4-3.9c0.1,0,0.2,0.1,0.4,0.2
			c0,2.3,0,4.7,0,7.2c-1.6,0-3.1,0-4.8,0C296.1,107.4,296.1,106.3,296.1,105.2z M289.9,102.3c0-0.4,0.6-1,0.9-1
			c1.2-0.1,2.5-0.1,3.8-0.1c0,2.7,0,5,0,7.5c-1.4,0-2.6,0.1-3.8-0.1c-0.4,0-0.9-0.7-0.9-1C289.8,105.9,289.8,104.1,289.9,102.3z
			 M216.9,100.7c7.3,0,14.5,0,21.7,0c0,2,0,3.8,0,5.7c-7.3,0-14.4,0-21.7,0C216.9,104.5,216.9,102.7,216.9,100.7z M191.8,100.8
			c7.3,0,14.4,0,21.7,0c0,2,0,3.8,0,5.7c-7.3,0-14.5,0-21.7,0C191.8,104.5,191.8,102.6,191.8,100.8z M187.1,111.8
			c31.5,0,63,0,94.5,0c0.3,0,0.6,0,0.9,0c1.2-0.1,1.4,0.5,1,1.6c-32.7,0-65.5,0-98.2,0C184.8,111.4,186.2,111.8,187.1,111.8z"/>
		<rect x="275.1" y="124.4" class="st0" width="48" height="6"/>
		<rect x="185.3" y="124.4" class="st0" width="48" height="6"/>
		<rect x="1" y="119.1" class="st0" width="181.8" height="4"/>
		<rect x="311.3" y="120.1" class="st0" width="9.7" height="6"/>
		<rect x="188.5" y="120.1" class="st0" width="9.7" height="6"/>
		<rect x="298.7" y="120.1" class="st0" width="9.7" height="6"/>
		<rect x="202.7" y="120.1" class="st0" width="9.7" height="6"/>
		<rect x="283.2" y="120.1" class="st0" width="9.7" height="6"/>
		<rect x="220.7" y="120.1" class="st0" width="9.7" height="6"/>
		<rect x="237.8" y="117.5" class="st0" width="33.7" height="10.6"/>
		<circle class="st0" cx="154.7" cy="129.6" r="4.8"/>
		<circle class="st0" cx="171" cy="129.6" r="4.8"/>
		<circle class="st0" cx="138.9" cy="129.6" r="4.8"/>
		<circle class="st0" cx="108.9" cy="129.6" r="4.8"/>
		<circle class="st0" cx="92.5" cy="129.6" r="4.8"/>
		<circle class="st0" cx="76.2" cy="129.6" r="4.8"/>
		<rect x="130.1" y="124.4" class="st0" width="48" height="6"/>
		<rect x="68" y="124.4" class="st0" width="48" height="6"/>
		<rect x="166.3" y="120.1" class="st0" width="9.7" height="6"/>
		<rect x="71.2" y="120.1" class="st0" width="9.7" height="6"/>
		<rect x="153.7" y="120.1" class="st0" width="9.7" height="6"/>
		<rect x="85.4" y="120.1" class="st0" width="9.7" height="6"/>
		<rect x="138.3" y="120.1" class="st0" width="9.7" height="6"/>
		<rect x="103.4" y="120.1" class="st0" width="9.7" height="6"/>
		<circle class="st0" cx="45.9" cy="129.6" r="4.8"/>
		<circle class="st0" cx="29.5" cy="129.6" r="4.8"/>
		<circle class="st0" cx="13.2" cy="129.6" r="4.8"/>
		<rect x="5" y="124.4" class="st0" width="48" height="6"/>
		<rect x="8.2" y="120.1" class="st0" width="9.7" height="6"/>
		<rect x="22.4" y="120.1" class="st0" width="9.7" height="6"/>
		<rect x="40.4" y="120.1" class="st0" width="9.7" height="6"/>
		<rect x="119.5" y="121" class="st0" width="8" height="7.6"/>
		<rect x="56.2" y="121" class="st0" width="8" height="7.6"/>
	</g>
</g>
<path class="st0" d="M371.4,26.1c-6.7-2.9-11.5-8.8-24.7-8.8c-11.8,0-21.8,0-22.6,0l-12.8-7.4c0,0-0.5-0.8-3.2-0.8
	c-2.6,0-7.8,0-7.8,0s-1.5,0.2-1,1.2c0.6,1,5.6,7,5.6,7l-45.7-0.1L246.1,4.4c0,0-0.7-1-2.9-1c-2.2,0-5.9,0-7.3,0
	c-1.3,0-1.3,0.7-0.9,1.5c0.4,0.7,4.9,12.3,4.9,12.3s17.2,19.5,31.4,19.9c0,0,72-0.3,89.3-0.3C374.1,36.8,375.1,28.4,371.4,26.1z
	 M324.1,17.3C324,17.3,324,17.3,324.1,17.3L324.1,17.3z M369.2,28.8c-2.1,0-11.2,0-13.3,0s-4.2,0.6-4.3-1.3
	c-0.1-1.9-0.3-5.3-0.3-5.8s1.4-2.2,7.3-0.7c0,0,10.2,5.2,11.2,5.9C370.8,27.5,371.3,28.8,369.2,28.8z"/>
<path class="st0" d="M588.4,120.8H587c0,0,0,0,0,0.1c0,3.5-9.4,6.4-21.1,6.4c-11.6,0-21.1-2.9-21.1-6.4c0,0,0,0,0-0.1h-1.4
	c-0.2,0-0.4,0.2-0.4,0.4v0.9v1.3v11h5.2h3.8h11h5.6h11h3.8h5.2v-11v-1.3v-0.9C588.7,121,588.6,120.8,588.4,120.8z"/>
<g>
	<path class="st0" d="M535.7,124.4c-0.6,0-1.1-0.1-1.7-0.4c-4.9-2.5-4.3-16-4.3-17.6l1.5,0.1c-0.2,3.9,0,14.4,3.4,16.1
		c1.1,0.6,2.6,0.1,4.5-1.5l1,1.2C538.5,123.7,537,124.4,535.7,124.4z"/>
</g>
<g>
	<path class="st0" d="M530.5,107.3c-1.5,0-2.8-1.6-2.8-3.6s1.2-3.6,2.8-3.6s2.8,1.6,2.8,3.6S532,107.3,530.5,107.3z M530.5,101
		c-0.9,0-1.8,1.2-1.8,2.6s0.8,2.6,1.8,2.6s1.8-1.2,1.8-2.6S531.5,101,530.5,101z"/>
</g>
<g>
	<path class="st0" d="M541.3,123.2c-1.4,0-2.5-0.8-2.5-1.9c-0.1-1.2,1-2.1,2.5-2.3c0.7-0.1,1.3,0.1,1.9,0.4c0.6,0.3,0.9,0.9,1,1.4
		c0.1,1.2-1,2.1-2.5,2.3l0,0C541.4,123.2,541.3,123.2,541.3,123.2z M541.5,120.1c-0.1,0-0.1,0-0.2,0c-0.9,0.1-1.6,0.6-1.6,1.2
		c0,0.6,0.9,1,1.7,0.9c0.9-0.1,1.6-0.6,1.6-1.2c0-0.3-0.3-0.6-0.5-0.7C542.3,120.2,541.9,120.1,541.5,120.1z"/>
</g>
</svg>
