<?xml version="1.0" encoding="utf-8"?>
<!-- Generator: Adobe Illustrator 21.0.2, SVG Export Plug-In . SVG Version: 6.00 Build 0)  -->
<svg version="1.1" id="Layer_1" xmlns="http://www.w3.org/2000/svg" xmlns:xlink="http://www.w3.org/1999/xlink" x="0px" y="0px"
	 viewBox="0 0 377 377" style="enable-background:new 0 0 377 377;" xml:space="preserve">
<style type="text/css">
	.st0{fill:#01416F;}
	.st1{fill:#00AEEF;}
	.st2{fill:#D1EBFA;}
	.st3{fill:#BCBEC0;}
</style>
<g>
	<g>
		<path class="st0" d="M189,80.7c-59.7,0-108.3,48.6-108.3,108.3c0,59.7,48.6,108.3,108.3,108.3c59.7,0,108.3-48.6,108.3-108.3
			C297.3,129.3,248.7,80.7,189,80.7z"/>
		<g>
			<path class="st1" d="M292.6,218.4c-1.4,0-3.3,0.7-3.3,1.2c0,0.5-2,1.4-2.6,1.6c-0.6,0.3-1.9,2.3-2.2,2.9
				c-0.3,0.7-1.9,0.5-2.5,0.7c-0.6,0.3-1.8,1.2-1.8,1.8c0,0.6-0.3,0.5-0.7-0.2c0,0,0,0-0.8,0.8c-0.9,1-0.9,1-0.9,1
				c-0.5,1.7-2.3,3.8-2.9,3.9c-0.6,0.2-0.7,3.1-0.7,4.3c0,1.2,0.5,2.6,1,3.2c0,0,0,0,0.1,0.9c0.2,1.9,0.2,1.9,0.2,1.9
				c-0.3,1.4,0.8,2.7,1.1,3c0.3,0.2,3-0.5,4-0.7c0.4-0.1,1-0.3,1.5-0.6c4.8-8,8.5-16.7,11.1-25.9C293,218.5,292.8,218.4,292.6,218.4
				z"/>
			<path class="st1" d="M113.8,221.2c-0.1,0.3,1.8,2.3,2.5,3c0.7,0.7,2.3,3.9,2.7,5c0.3,1.1,0.1,2.8,0,3.2c-0.1,0.4,0.4,1.3,0.4,1.7
				c0.1,0.4-0.7,3.6-0.4,4.8c0.3,1.3-1.5,5.3-1.5,7.3c0,2,0.9,4.6,1.3,4.4c0.4-0.2,0.5,1.8-0.1,2c-0.6,0.2-1.3,1.8-1,1.9
				c0.3,0.1,0,1.6,0.1,2.3c0.1,0.6,0.6,4.7,0.7,5.8c0.1,1,1.6,3.5,1.9,4.4c0.3,0.9,0.6,2.5,0.7,2.7c0.1,0.3,0.3,0.5,0.3,0.5
				c0,0,1.2,0.4,1.5,0.7c0.4,0.3,2.7,0.1,3.4-0.1c0.8-0.2,0.1-0.8-0.3-1.2c-0.3-0.4-0.6-2.2-1-2.4c-0.4-0.2-0.6-2.5-0.2-3
				c0.3-0.5,1.7-1.3,1.9-1.8c0.1-0.4,0.2-2.5-0.2-2.7c-0.4-0.3,0.1-2.7-0.2-4c-0.3-1.2,2.1-2.3,2.3-3.3c0.1-1,2.7-2,3.3-2.5
				c0.6-0.5,1.1-3.3,0.8-3.9c-0.3-0.6,1-1.1,1.5-1.1c0.6,0,1.2-0.4,1.4-0.4c0.2,0,0.9-1.2,1.2-1.5c0.4-0.3,1.1-3.2,1.7-3.7
				c0.6-0.5,1.2-2.3,1.2-2.8c0-0.5,1-2.1,1.3-2.5c0.3-0.5,2.8-1.6,3.2-1.8c0.4-0.2,1.1-4.1,1.3-5.5c0.2-1.4,0.9-3.3,1-3.7
				c0-0.5,0.8-0.9,1-1c0.1-0.1,0.7-1.9,1.1-2.3c0.4-0.4,1.7-2.1,1.8-2.5c0-0.4,0.2-1.4,0.5-2.2c0,0,0,0,0-1c0-1.5,0-1.5,0-1.5
				c-0.4-1.2-1.7-2.6-2.1-2.3c-0.3,0.3-1.8-1-2.6-1.3c-0.8-0.3-2.7-0.5-3.2-0.5c-0.5,0-2.2-1.4-2.9-1.6c-0.8-0.2-2.7-0.6-3-0.8
				c-0.3-0.2-0.8-3.1-2.4-4c-1.5-0.9-4.2-3.1-4.5-3.9c-0.3-0.8-3.3-2.5-4.2-3c-0.9-0.5-2.3-0.6-2.5-0.4c-0.2,0.2-1.3-1.5-1.9-2
				c-0.6-0.5-2.4-0.9-2.4-0.5c-0.1,0.4-1.3,0.2-1.5-0.2c-0.3-0.4-1.2,0.2-1.6,0.3c-0.4,0.1-1.9,2.4-2.6,2.9
				c-0.7,0.5-1.5-0.5-1.9-0.7c-0.5-0.2-2.1,0.3-2.6,0.7c-0.5,0.3-1.5-2.4-1.3-3.6c0.2-1.2-1.1-3.7-2.2-3.8c-1-0.1-1.4-2.7-1.2-3.6
				c0.2-1-1.9-1.6-2.4-1.6c-0.5-0.1-1.9,1.3-2.1,1.9c-0.2,0.6-5-0.9-4.5-3.8c0.6-2.9,2.8-5.8,3.4-6.2c0.6-0.3,3.6-0.5,4.3-0.1
				c0.7,0.4,1.3,0,1.4-0.2c0.1-0.2,2.6,0,3.4,0.3c0.7,0.3,1.8,3.2,2.6,3.6c0.8,0.4,1.1-1.9,1.2-2.4c0.1-0.5-0.4-1.9-0.6-2.3
				c-0.2-0.4,1.2-3.9,2.4-4.5c1.2-0.6,2.4-2.6,2.3-2.9c-0.1-0.3,0.9-0.6,1.2-0.8c0.3-0.1,0-3,0.4-3.6c0.5-0.6,2.7-1.9,3.4-2.2
				c0.7-0.3,1.2-2.1,1-2.4c-0.3-0.3,1.8-2.1,2.9-2.4c1.1-0.3,2,0.6,1.7,0.8c0.2-0.1,1.7-0.9,2.3-1.3c0.7-0.5,0-1.8-0.5-2.2
				c-0.5-0.4-0.2-1.9,0.4-2.1c0.6-0.1,1.1-1.5,0.9-1.8c-0.1-0.3,2.4,0.2,3.3-0.5c0.9-0.7,0.3,1.7-0.4,2.7c-0.7,1,0.5,1.9,1,1.7
				c0.4-0.2,0.9,0.5,1,0.8c0.1,0.3,1.1-0.3,1.7,0c0.6,0.3,1-0.9,1.1-1.4c0-0.5-1.5-1.6-1.8-2.2c-0.2-0.6-0.3-4.3-0.4-5.1
				c0-0.8-1-2-1.4-1.8c-0.3,0.2-1-2-1.5-2.4c-0.5-0.5-0.6-1.5-0.6-1.9c0-0.4-1.8-2.2-2.2-3.1c-0.4-0.9-1-0.7-1.1-0.3
				c0,0.4-1.3,0.5-1.8,0.4c-0.5,0-0.9-2-0.9-2.8c0-0.7-2.3-0.9-2.7-1.5c-0.4-0.6-1.9-0.3-2.1-0.7c-0.2-0.4-1.6-0.8-1.8-0.6
				c-0.3,0.2-0.1,5.5-0.4,7c-0.3,1.5-1.5,2.7-1.9,2.7c-0.4,0-0.2,1,0.1,0.9c0.3-0.1-0.9,1.6-1,2.7c-0.2,1.1-1.3,0-1.5-1
				c-0.2-1-1.3-2.4-1.5-2c-0.2,0.3-1-0.4-1.3-0.2c-0.3,0.2-2.4-1.2-3.2-1.7c-0.8-0.4-1.3-3-1.8-3.2c-0.5-0.2-0.1-0.5-0.1-0.9
				c0-0.4,1.6-1.9,2.1-2.5c0.5-0.6,2.3-2.9,3-3.4c0.7-0.5,1.3-1.8,1.1-2.1c-0.1-0.2,3-1.2,3.9-1.5c0.9-0.3,1.6-2.7,1.7-3.4
				c0.1-0.7-0.5-2-0.9-2.2c-0.4-0.2,1.2-0.2,1.7,0c0.5,0.3,2.2-0.5,2.8-0.1c0.6,0.3,1.9,1.1,2.9,1.7c0,0,0,0-0.2,1.8
				c-0.4,3-0.4,3-0.4,3c-2.5,1-3.2,2.8-2.3,2.8c0.9,0,4.9,1.7,6,2.5c1.1,0.8,1.5-1.2,1.8-1.8c0.3-0.6,0.2-2.6,0-2.9
				c-0.3-0.4,1.3-0.2,1.7,0.2c0.4,0.4,1-0.4,1.3-0.6c0.3-0.2,0.5-1.8,0.7-2.1c0.2-0.3-0.7-0.7-0.8-1.1c0-0.4-1.8-1.2-2.4-1.5
				c-0.6-0.3-0.7-1.5-0.4-1.7c0.3-0.2-0.2-1.8-0.5-2.3c-0.3-0.5-2.2-0.9-2.8-0.9c-0.6,0-1.3-1.4-1.6-1.7c-0.4-0.2-2.8-0.5-3.3-0.3
				c-0.6,0.2-1.7-1.7-2.7-1.1c-1,0.6-2-0.7-2.5-0.9c-0.5-0.2-2.8,2.3-2.8,4c0,1.8,0.9,3.5,1.3,3.5c0.4,0.1-0.1,1.7-0.5,2.1
				c-0.4,0.5-1.4-0.5-1-0.9c0.4-0.4-1-2.3-1.5-3c-0.3-0.5-1.6-1-2.4-1.4c-0.5,0.5-1,1.1-1.4,1.6c0.2,0.6,0.4,1.5,0.2,2.1
				c-0.3,1.1-1.2,1.2-1.3,0.8c0-0.2-0.5-0.4-1-0.4C92.7,135.5,84,155,81.5,176.4c0.5,0.6,1.1,1.3,1.3,1.8c0.3,1,2,1.6,2.3,1.8
				c0.3,0.2,0.4-1.8,0.2-2.3c-0.2-0.5,0.4-0.8,0.4-0.5c0,0.4,1.6,2.1,2.1,2.8c0.5,0.6,1.1,4.8,1.5,5.7c0.5,0.9,5.3,2.7,6.8,3
				c1.5,0.3,3.5,2,3.8,2.5c0.3,0.5,2.3,0.7,2.8,0.9c0.4,0.2,1.5,1.6,1.9,1.9c0.4,0.3,0.8,1.1,0.8,1.3c0,0.2,2.7,1.2,3.3,2
				c0.6,0.7,1.7,0.5,1.9,0.2c0.2-0.3,0.7,1.4,1,2c0.3,0.6,0.3,2.1,0.1,2.3c-0.2,0.2-0.6,2.9-1.1,3.5c-0.5,0.5-1.4,4.5-1.2,5.3
				c0.2,0.8,1.5,2.4,2,2.6c0.5,0.2,0.3,1.1-0.1,1.1c-0.4,0.1-0.2,3.8,0.8,4.4C113.1,219.3,114,220.9,113.8,221.2z"/>
			<path class="st1" d="M126.5,155.3L126.5,155.3C126.5,155.3,126.5,155.3,126.5,155.3z"/>
			<path class="st1" d="M119.1,109.6c1.3-0.2,3.5-0.6,3.6-0.9c0.1-0.3,0.1-1.2-0.1-1.5c0.2,0,0.4,0,0.6,0c0.5,0,1.3-2.7,1.8-3.3
				c0.5-0.6,3.5-1.6,4.2-2c0.7-0.4,2.3-1.9,2.8-2.1c0.6-0.2,1.5-1.6,1.3-1.8c-0.1-0.3,2-1.6,2.8-1.9c0.8-0.3,1.2-1.3,0.9-1.3
				c-0.2,0-4.7,2.3-8.9,4.7c-4.7,3.2-9.2,6.8-13.3,10.7C116.3,110,118.3,109.7,119.1,109.6z"/>
			<path class="st1" d="M197.5,244.4c1.4-0.8,3.7-4.3,4.5-5c0.8-0.7,1.3-3.4,1.5-3.9c0.2-0.6,1.3-1.5,1.8-1.6c0.4-0.1,1.8-6,3.1-7.2
				c1.2-1.3,2.7-7.4,2.5-9.7c-0.2-2.2,0.8-6.4,1.1-7.5c0.3-1,1.8-2.8,2.3-3.2c0.5-0.4,3.4-4.8,4.4-6.4c1-1.6,1.9-5.1,1.7-5.9
				c-0.2-0.8-2.3-1.4-2.6-1c-0.4,0.4-2.3,0.7-3,0.7c-0.6,0-2.1-3.3-2.9-4c-0.9-0.7-1.7-4.5-2.2-5.2c-0.5-0.7-1.9-2.6-2.4-3
				c-0.4-0.4-0.5-2.5-0.6-3c-0.1-0.6,0.9,0.4,1,1.2c0.2,0.8,2.5,4.1,3.2,5.2c0.7,1.1,2.6,4.6,3.1,5.7c0.5,1.1,4.6,0.5,6-0.1
				c1.3-0.6,3-1.7,3.1-2.1c0.1-0.4,2.2-1.4,2.8-1.8c0.6-0.5,1.1-3,1.5-3.4c0.4-0.4-0.3-2.8-0.8-3.5c-0.4-0.7-2.6-1.3-3-1
				c-0.4,0.3-1.4-1.6-1.7-2.3c-0.3-0.7-2-1.5-2.2-2c-0.2-0.5,0.4-1.2,0.7-1.4c0.3-0.2,3.3,2,4.2,3c0.9,1.1,1.9,3,2,3.4
				c0.2,0.3,2.6,0.5,3.1,0.1c0.5-0.4,1.2-0.3,1.4,0.2c0,0,0,0,0.8-0.1c2.6-0.4,2.6-0.4,2.6-0.4c1.2,1.4,1.6,2.5,1.6,2.8
				c0,0.3,0.8,1.4,1.3,1.5c0.5,0.1,0.9,1.8,1,2.3c0.1,0.4,1.7,3,2,4.1c0.3,1.1,1.6,3.2,1.9,3.8c0.3,0.6,0.6,2.2,0.6,2.7
				c0,0.4,1,1.3,1.6,1.3c0.6,0,1.8-3.8,2.1-5.2c0.3-1.4,1.3-2.6,1.5-2.6c0.3,0,0.5-0.8,0.5-1.1c0-0.3,1.5-0.3,1.7-0.6
				c0.1-0.4,0.6-2.9,1.1-3.3c0.5-0.4,2.5-1.6,3.2-1.9c0.7-0.2,2.4,1.3,2.8,2c0.4,0.7,0.7,2.5,0.6,2.8c-0.1,0.3,0.9,1.8,1.8,1.8
				c0.9,0,1.2,1.2,1.2,1.6c0,0.4,1.2,1.7,1.5,2.2c0.2,0.6,0.2,2.1,0,2.4c-0.2,0.3-0.1,2.3,0.1,2.9c0.2,0.6,3,3.4,4.1,4.3
				c1.1,0.9,1.6-1.8,1-2.6c-0.5-0.8-2.4-2.7-2.8-3.3c-0.4-0.6-0.5-2.9-0.3-3.5c0.2-0.6,1.6,0.4,2.2,0.8c0.6,0.5,1.4,1.5,1.4,1.9
				c0,0.3,3.8-1.8,4-4.1c0.1-2.3,1.4-4.9,1.5-5.5c0.1-0.6-0.4-1.4-0.7-1.5c-0.3,0,0.6-1.8,1.6-1.7c1.1,0,3.6-2.8,4.2-4
				c0.6-1.1,1.8-2.1,2-2.2c0.1-0.1,1-2.8,1.1-3.9c0.1-1.1-0.6-2.8-0.7-3.4c-0.1-0.6-1-1.9-1.2-2.3c-0.2-0.4-0.5-2-0.3-2.3
				c0.1-0.3,1.1-0.6,1.2-0.9c0.1-0.3,1.2-1.4,1.1-2c-0.1-0.5,0.7,0.7,1.2,1.1c0.5,0.4,1,3.2,1.7,3.5c0.6,0.3,3.1-2.9,2.8-5
				c-0.3-2.1,0.7-4.8,1.3-5c0.5-0.2,1.6-1.9,2.5-3.1c-5.6-16.1-14.8-30.4-26.7-42c-0.1,0-0.3,0-0.4,0c-0.9-0.2-0.9-0.2-0.9-0.2
				c-1.5-0.3-2.5-2-2.2-2.4c0.1-0.1,0.1-0.4,0-0.7c-0.9-0.8-1.8-1.5-2.7-2.3c-0.7,0-1.5,0-2,0c-0.9,0-2.9-0.7-3.3-1.1
				c-0.4-0.4-1.6,0.3-1.7,1c-0.1,0.7-2.2,1-2.4,1.5c-0.2,0.5-1.3,0.5-1.5,0.3c-0.2-0.3-2.2,0.7-3.2,0.8c-1,0.1-2.8,0.9-3.2,1.1
				c-0.4,0.2-1.5,1.2-1.6,1.6c-0.2,0.4-1.4,1.1-1.8,1.3c-0.4,0.2-0.3,2,0.2,2.2c0.5,0.3-1-0.2-1.6-0.6c-0.7-0.3-1.4,0.8-1.6,1.2
				c-0.2,0.4-0.8-0.2-0.8-0.8c0-0.5-1.6-1-1.8-0.6c-0.2,0.4-1.4-0.1-1.8-0.4c-0.5-0.3-2.5,1.9-3.3,2.6c-0.8,0.8-4.4,1.4-5,1.1
				c-0.7-0.3-1.3,1.6-0.8,1.7c0.6,0.1-1.5-0.1-2.6,0c-1.1,0.1-4.4,1.4-5.2,2c-0.8,0.6-1.4-0.1-1.4-0.6c0-0.4-1.2-0.9-1.6-1
				c-0.4-0.1-1.1,2.4-1.7,2.9c-0.7,0.5-1.4-2-3-2.4c-1.5-0.4-3.9-1.9-4.6-2.1c-0.7-0.2-2-1.6-2.4-2c-0.4-0.4-2.3-0.8-3-0.8
				c-0.6,0-2.6,1.2-3.2,1.6c-0.6,0.5-1.4,0.4-1.6,0.5c-0.3,0.2-2.6,2.4-3.4,3.1c-0.9,0.7-2.4,3.7-2.9,4.4c-0.5,0.7-1.2,0.9-1.5,0.9
				c-0.3,0-0.5,0.8-0.5,1.1c0,0.3-2.6,1.7-2.9,2.9c-0.3,1.2,0.3,3.9,0.3,4.9c0,1,1,2.9,1.7,2.9c0.7,0,0.3,1.6,0.2,2.1
				c-0.2,0.5,0.5,0.9,0.4,1.3c0,0.4-1.8,0.9-2.4,1.1c-0.6,0.2-1.5,1.5-1.6,1.9c-0.1,0.4-1.8,0.7-2.4,1.3c0.1-0.4,0.3-1,0.5-1.3
				c0.3-0.6-0.1-1.7-0.4-2c-0.3-0.2-0.4-3.4-0.8-4.1c-0.4-0.7-1.5-1.8-1.8-2c-0.3-0.2,0.2-1,0.3-1.4c0.2-0.3-1.5-0.6-1.9-0.3
				c-0.4,0.3-0.7,3.4-0.9,4.2c-0.2,0.9,0.8,2.2,1.1,2.2c0.3,0.1,0.2,1.6-0.4,1.6c-0.6,0.1-1.1,2.3-0.8,2.8c0.3,0.5-0.4,1.5-0.7,1.7
				c-0.3,0.2,2.2,0.1,3.3,0.1c1.1,0,2.1,0.5,1.9,0.6c-0.1,0.1-2.2,0.4-2.6,0.9c-0.4,0.5-1.8,1.4-2.1,1.8c-0.3,0.4,0.5,1.2,1.1,1.2
				c0.6,0,1.3,2.1,1.8,2.5c0.5,0.4,0.3,1.5,0.1,1.8c-0.2,0.3-3-0.2-4.1,0.1c-1.1,0.3-2.4,2.5-2.5,3.4c-0.1,0.9,0.2,3.3,0.3,4
				c0.1,0.7,2.4,1.1,2.8,1.4c0.5,0.3,2.6,0,3.1,0.2c0.4,0.2,1.9-2.2,2.2-3.3c0.3-1.1,2.6-3.1,3-3.9c0.5-0.8,2.9-0.7,3.5-1.1
				c0.6-0.4,0.3,1.9,0.6,3.1c0.3,1.3,2.7,1.1,2.3-0.1c-0.3-1.2,0.2-1.7,0.3-1.2c0.1,0.4,2.4,1.3,2.8,2c0.4,0.7,0.3,2.1-0.2,2
				c-0.5,0-0.5,1.5,0,1.7c0.5,0.2,1.2-1.7,1.8-2c0.6-0.3,1-1.5,0.8-1.6c-0.3-0.1,0.5-1.2,0.8-0.8c0.3,0.3-1.2-2.3-2.2-3.3
				c-1-1-0.3-0.5,1.5,1c0,0,0,0,1.2,1.7c0.2,0.3,0.6,1.3,0.8,1.6c0.3,0.5,0.3,0.5,0.3,0.5c0.2,0.6,0.5,2.3,0.5,2.7
				c0,0.4,1,1.3,1.6,1.3c0.6,0,1,0.3,0.9,0.3c-0.1,0,0.4,1.2,1,1.2c0.6,0,0.8-1.5,0.2-1.5c-0.6,0-0.5-2.2-0.6-3.2
				c-0.1-1,0.4-1.7,0.6-1.7c0.2,0,0,2,0,2.4c0,0.5,0.3,1.3,0.5,2c0,0,0,0,0.6,0.5c1.4,1.1,1.4,1.1,1.4,1.1c2-0.6,4.6-0.1,4.5,0.3
				c-0.1,0.4,1.5,0.5,1.5-0.1c0.1-0.6,0.2,0,0.2,0.5c0,0.4-1.3,2.2-1.5,3c-0.2,0.8-4.7,0.3-6.7,0.1c-1.9-0.1-4.8,0.5-5,1.1
				c-0.2,0.6-3.3-1.3-4.7-1.9c-1.4-0.6-2.5-2.7-2.8-3c-0.3-0.3,0.2-1,0.1-1.4c-0.1-0.4-3.3-0.5-4.2-0.2c-0.9,0.3-5.7,0.8-6.8,1.3
				c-1.1,0.5-2.8,0-3.4-0.1c-0.5-0.1-1.8,1.5-2.4,1.7c-0.6,0.3-1.5,2.5-1.8,4.9c0,0,0,0-0.9,1.7c-0.6,1.1-0.6,1.1-0.6,1.1
				c-1.6,1.2-3.3,5.2-3.8,6c-0.5,0.8-0.9,6.6-0.9,8.5c0,1.9,1.7,6,2.2,7.2c0.5,1.1,3.4,3.6,4.4,4.2c1,0.6,4.1,0.7,5.2,0.7
				c1,0,2.2-1,2.6-2.2c0,0,0,0,1.5,0.2c0.7,0.1,0.7,0.1,0.7,0.1c0,0.9,2.3,1.5,2.8,1.8c0.6,0.3,2,0.1,2.5-0.1c0.4-0.1,0.9,3.8,0.6,5
				c-0.3,1.2,0.8,5.2,1.1,6.4c0.3,1.2,1.7,4.5,1.9,5.7c0.1,1.2-0.8,5.2-1,6.5c-0.2,1.4,1.7,5.3,2.2,6.6c0.5,1.3,0.9,4.2,0.9,4.9
				c0,0.7,2.1,4.7,2.5,6.3C190.9,244.8,196.1,245.2,197.5,244.4z"/>
			<path class="st1" d="M286.7,195.2c0.1,0.3,1.4-0.7,2.2-0.9c0.8-0.1,1.3-2.2,0.7-2.4c-0.6-0.2-1.4-1.8-1.8-2
				c-0.4-0.2-1.3,0.7-1.3,1.3c0,0.6-1.4,0.9-1.7,1.4c-0.3,0.5-0.3,0.9,0,0.9C285.2,193.6,286.6,194.9,286.7,195.2z"/>
			<path class="st1" d="M285.1,206.6c0.4-0.1,0-2.2-0.9-2.4c-0.8-0.2-3.1,2.7-2.6,4.4c0.4,1.7,0.9,1.6,1.1,1.2
				c0.2-0.4,1.6,0.2,2,0.4c0.4,0.1,0.4-0.3,0-0.9C284.4,208.6,284.8,206.7,285.1,206.6z"/>
			<path class="st1" d="M280.7,204.6c0.1-0.7,0.2-3,0.4-3.5c0.1-0.5-1.3-1.8-1.9-2c-0.7-0.2-2.9,4.5-4.4,5.3
				c-1.6,0.8-2.1,3.7-1.7,4.4c0.4,0.7,3.7,1,4.3,1.5c0.6,0.5,1.2-0.1,1.5-0.2c0.3-0.1,0.2-0.3,0.1-0.4c-0.1-0.1,1.1-1.4,1.3-2.3
				C280.4,206.6,280.6,205.3,280.7,204.6z"/>
			<path class="st1" d="M271.8,212.4c-1.2-0.5-2.7,0.3-2.8,0.7c-0.1,0.5,4.7,1.2,6.3,1.7c1.6,0.4,2.6,0.6,2.2,0.3
				C277.2,214.9,273,212.9,271.8,212.4z"/>
			<path class="st1" d="M281.6,180.9c0.4-0.5-0.5-3.1-1-2.5c-0.5,0.6-0.1,2,0,2.6C280.8,181.5,281.3,181.5,281.6,180.9z"/>
			<path class="st1" d="M284.6,186.4c0.3-0.7-0.3-1.4-1.4-1.6c-1-0.2-0.9,2.9-0.4,3.3C283.2,188.5,284.3,187,284.6,186.4z"/>
			<path class="st1" d="M290,205.9c1.3,0.9,4.1,0.5,4.1-1.2C292.9,203.9,289.9,204,290,205.9z"/>
			<path class="st1" d="M289.3,167.3c-0.5,0.4-0.8,1.3-0.6,1.7c-0.1,0-0.1,0-0.2,0c-0.4,0-0.5,1.6,0,1.9c0.4,0.3,1.5-1.3,2-1.7
				c0.6-0.4,1.7-0.6,1.8-0.5c0.2,0.1,1.1-0.2,2.2-0.6c0.2-0.1,0.4-0.4,0.6-0.7c-0.2-1.2-0.5-2.4-0.8-3.6c-0.5,0.4-1.1,0.8-1.4,1
				C292.4,165.3,290,166.8,289.3,167.3z"/>
			<path class="st1" d="M260.7,200.5C260.7,200.5,260.7,200.5,260.7,200.5C260.5,200.4,260.5,200.3,260.7,200.5z"/>
			<path class="st1" d="M268.5,207.8c-0.5-1-2-2.8-3.3-3.9c0,0,0,0-0.5-0.9c-0.6-0.9-0.6-0.9-0.6-0.9c-0.5-1-2.1-1.8-2.2-2.2
				c-0.1-0.3-0.6,0.9-1.2,0.6c0.3,0.2,0.9,0.6,1.7,1.2c1.5,1,4.3,8.1,4.9,8.6C267.9,210.8,269,208.8,268.5,207.8z"/>
			<path class="st1" d="M246.2,196.4c-0.4,0.8,2.1,2.5,2.3,2.1c0.2-0.4-0.3-2.3-0.8-2.8C247.2,195.3,246.6,195.6,246.2,196.4z"/>
			<path class="st1" d="M213.4,234.1c0.1,0.8,1.8,1.5,2.3,1.4c0.5-0.1,1.9-2.7,2.1-3.4c0.2-0.7,0.4-2.3,0.4-2.7
				c0-0.4,0.2-1.2,0.4-1.3c0.2-0.1,0.5-1,0.7-1.9c0.2-1-1-5.4-1.1-6.2c0-0.8-0.9,0.4-1.1,1.2c-0.2,0.8-2.4,2.4-2.9,3.1
				c-0.5,0.7-1,2.9-0.8,3.3c0.2,0.4-0.2,1.9-0.4,2.4C212.6,230.3,213.3,233.2,213.4,234.1z"/>
			<path class="st1" d="M133.6,264.8c0.5,0,1,0,1.5,0C135.4,263.2,133.5,263.5,133.6,264.8z"/>
			<path class="st1" d="M173.3,97.3c-0.6,0.1-2.2-0.2-2.5-0.5c-0.3-0.3-2.7-0.6-3.4-0.3c-0.7,0.3-0.2-1.7,0.8-1.9
				c1-0.2,0.2-1.6-0.9-1.6c-1,0-3.6-0.4-4.2-0.2c-0.6,0.1-1.8-0.4-2.2-0.5c-0.4-0.1-3.5,0.9-4.9,0.8c-1.5-0.1-5,0.1-5.8,0.3
				c-0.8,0.2-1.3,1.7-1.2,2.2c0.1,0.5-3.4,0.5-4.6,0.5c-1.1,0-7.1,1.3-8.7,2.1c-1.6,0.9-2.8,3-2.3,3.1c0.5,0-0.9,1.3-1.7,1.6
				c-0.8,0.3-2.8,0.4-3.3,0.9c-0.5,0.5,0.5,0.8,0.7,1.1c0.2,0.3,0.7-0.3,1.3,0c0.5,0.3,2.3,0.4,2.7,0.6c0.5,0.2-1.5,0.6-2.4,0.6
				c-0.9,0.1-0.7,1.9,0,2.1c0.7,0.3,2.7,0.5,2.9,0.2c0.2-0.3,2.3,0.3,3.2,0.4c0.9,0.1,1.6,2.4,1.9,3c0.3,0.5,0.3,2.3,0.3,2.8
				c-0.1,0.5,1.7,1.5,2,1.1c0.3-0.3,0.2,0.8-0.5,0.8c-0.7-0.1-0.2,1.9,0.6,2.2c0.8,0.3,0.3,1.5-0.2,1.9c-0.5,0.4-0.2,1.5-0.7,2
				c-0.5,0.4,1.8,4.4,1.8,6.4c0,2,1.2,3.7,1.7,3.7c0.5,0,2.2,0.4,2.4,0.8c0.2,0.4,1-0.3,1.3-0.6c0.3-0.3,1-1.3,1.5-2.2
				c0.5-0.9,1.7-4.9,1.8-5.4c0.2-0.4,2.1-0.2,2.5-0.4c0.4-0.2,1.7-1.2,2-1.5c0.4-0.3,3.1-1.4,3.8-2c0.7-0.5,2-2.8,2.6-3.3
				c0.6-0.5-0.3-0.3-1-0.8c-0.7-0.5-0.4-1.1-0.2-1.3c0.2-0.2,2.4,0.4,3.2,0.7c0.8,0.3,2.2-0.7,1.7-1.2c-0.6-0.4-0.3-0.4,0-0.2
				c0.3,0.2,0.6-1.3,0.3-1.6c-0.3-0.3,2.2-2.1,1.8-3.9c-0.4-1.7,0.7-3.5,1.4-3.5c0.7,0,0.5-2-0.3-2.1c-0.8-0.2,0-0.4,0.3-0.6
				c0.3-0.3,0.7-2,0.5-2.3c-0.2-0.3,1.2-0.7,1.5-1.1c0.3-0.4,1.9-1.2,2.5-1.3C173.6,98.7,173.9,97.2,173.3,97.3z"/>
			<path class="st1" d="M187.4,98.7c-0.8-0.3-2.3,0.6-2.1,1.1c0.2,0.5-1.3-0.6-2.3-0.1c-1,0.5-1.3,2.3-0.8,2.6
				c0.5,0.2,0.8,1.7,0.8,1.9c0,0.3,2,0.1,2.5-0.3c0.5-0.4,0.4,1.5-0.1,2c-0.5,0.5,0.2,1.5,0.7,1.6c0.6,0.1,1.3,1.4,1.9,1.4
				c0.6,0,1.5-2.2,1.8-3c0.2-0.8,2.1-0.2,3,0.1c0.9,0.3,1.2-3,0.2-3.5c-0.9-0.5-2.1-0.2-2.5-0.6c-0.4-0.4-1.1-0.7-1.5-0.8
				C188.6,100.9,188.2,99,187.4,98.7z"/>
			<path class="st1" d="M195,100.3c1.5,0.2,3.2-1,3.6-1.4c0.4-0.3-4.2-1.3-6-1.3c-1.8-0.1-3.2,0.2-3.1,0.5
				C189.5,98.4,193.4,100,195,100.3z"/>
			<path class="st1" d="M167.1,141.6c-0.4-0.2-0.6,1.3-0.5,1.9c0.1,0.6,1.5,0.5,2.1,0.4c0.6-0.1,1.1-0.6,1-1.1
				c0-0.5-0.9-2.7-1.2-2.7C168.1,140.1,167.5,141.7,167.1,141.6z"/>
			<path class="st1" d="M171.6,124c-0.3-0.6-2.7-0.5-3.3-0.5c-0.6,0-2.4-0.6-2.7-1c-0.3-0.4-0.6,1.5-1.1,1.7
				c-0.6,0.2,0.3,0.6,0.5,0.4c0.2-0.2,0,1-0.3,1.4c-0.2,0.4,1.6,0.7,1.8,1.3c0.2,0.6,1,1,1.7,0.9c0.7-0.1,2.2-0.9,2.7-0.9
				C171.4,127.1,171.9,124.6,171.6,124z"/>
			<path class="st1" d="M221.9,110.3c0.8-0.8,4.2-1.9,4.6-2.8c0.4-0.9-0.2-1.5-0.6-1.5c-0.3,0-0.8,0.4-0.8,0.6
				c-0.1,0.1-4,1.1-5.2,1.6c-1.2,0.6-2.6,1.5-3.1,2c-0.5,0.5-1.3,4.4-1.6,4.8c-0.3,0.4,1.3,2,2,2.4c0.7,0.4,1.7,0.2,1.9,0.1
				c0.3-0.1-0.4-2.8-0.7-3.7C218.1,112.8,221.1,111.1,221.9,110.3z"/>
			<path class="st1" d="M217.8,100.2c1.3,1.3,2-0.6,3.4-0.4C221.1,97.3,217.7,98.2,217.8,100.2z"/>
			<path class="st1" d="M242.6,100.7c0,0.5,3.5,0.9,4.6,0.7c1-0.2-0.2-1.8-1.8-1.7C244,99.8,242.7,100.3,242.6,100.7z"/>
			<path class="st1" d="M113.1,127.3c-0.4,0.3-0.1,2.1,0.7,2.2c0.7,0.1,1.9-2.6,2.7-2.1c0.9,0.5,1.5,0.8,1.3,0.5
				c-0.1-0.3-2.6-1.4-3-1.6C114.6,126,113.5,126.9,113.1,127.3z"/>
			<path class="st1" d="M122.2,186.7c0,0.3,1.6,0.3,1.8-0.2c0.2-0.5,0.1-0.9-0.3-0.9C123.3,185.6,122.2,186.4,122.2,186.7z"/>
			<path class="st1" d="M115.3,184.1c0.7-0.1,0.4,1.1,0.6,1.5c0.2,0.4,2,0.8,2.3,1.1c0.4,0.3,1.3-0.5,2-0.5c0.7,0.1-0.2-2.5-1.4-2.4
				c-1.2,0.1-2.2-1.1-2.4-1.2c-0.3-0.1-1.7-1-2.1-1.3c-0.4-0.3-3.4-0.6-4.5-0.6c-1,0-2.2,1.1-2.3,1.4c-0.2,0.4,1.6,0.6,2.2,0.3
				c0.5-0.3,2.9,0.3,3.4,0.9C113.5,183.9,114.5,184.3,115.3,184.1z"/>
			<path class="st1" d="M112,186.7c0,0.3,1.6,0.1,2,0.1c0.4,0,0.4-0.3,0-0.6C113.6,185.9,112,186.4,112,186.7z"/>
			<path class="st1" d="M113.1,178.6c-0.4-0.2-0.7,0.5-0.7,0.8c0,0.3,0.2,0.6,0.5,0.6C113.2,179.9,113.6,178.7,113.1,178.6z"/>
			<path class="st1" d="M116.5,178.8c-0.1-0.3-0.8-0.6-1-0.6c-0.2,0-0.3,0.5-0.3,1.2C115.2,180.1,116.6,179.1,116.5,178.8z"/>
			<path class="st1" d="M118.8,182.5c0.6-0.3,0.7-1.1,0.3-1c-0.4,0-1.1-1.1-1.5-1.3c-0.4-0.2-0.7,0.7-0.7,1.1s0.2,0.6,0.5,0.6
				C117.7,181.7,118.2,182.8,118.8,182.5z"/>
			<path class="st1" d="M294.7,207.2c-0.3,0.2-1.9,0.4-2.1,0c-0.2-0.3-0.5,0.6-0.9,0.8c-0.3,0.2-0.2,1,0.4,0.7
				c0.3-0.2,1.9,0.7,3.1,1.4c0.2-1.2,0.5-2.4,0.7-3.7C295.4,206.8,295,207.1,294.7,207.2z"/>
		</g>
		<path class="st2" d="M122.7,107.4c-0.1-0.1-0.6,0.2-0.4,0.4C122.5,107.9,122.9,107.6,122.7,107.4z"/>
		<path class="st2" d="M134.7,143.1c-0.1-0.1-0.6,0.2-0.4,0.4C134.5,143.7,134.9,143.3,134.7,143.1z"/>
	</g>
	<g>
		<path class="st3" d="M189,309.7c-2.1,0-4.2-0.1-6.3-0.2l0.1-2c3.9,0.2,8,0.2,12,0l0.1,2C193,309.6,191,309.7,189,309.7z
			 M207.1,308.4l-0.3-2c4-0.6,7.9-1.4,11.8-2.4l0.5,1.9C215.1,306.9,211.1,307.7,207.1,308.4z M170.5,308.3c-4-0.6-8-1.4-12-2.5
			l0.5-1.9c3.9,1,7.8,1.8,11.8,2.4L170.5,308.3z M230.7,302.3l-0.7-1.9c3.7-1.4,7.5-3,11.1-4.7l0.9,1.8
			C238.3,299.3,234.5,300.9,230.7,302.3z M146.9,302.2c-3.8-1.4-7.6-3-11.2-4.8l0.9-1.8c3.6,1.8,7.3,3.4,11,4.8L146.9,302.2z
			 M252.7,291.6l-1.1-1.7c3.4-2.1,6.7-4.4,9.9-6.9l1.2,1.6C259.5,287.1,256.1,289.4,252.7,291.6z M125,291.4c-3.4-2.2-6.8-4.5-10-7
			l1.2-1.6c3.2,2.5,6.5,4.8,9.9,6.9L125,291.4z M272,276.6l-1.4-1.5c2.9-2.8,5.7-5.7,8.3-8.7l1.5,1.3
			C277.8,270.9,274.9,273.8,272,276.6z M105.7,276.4c-2.9-2.8-5.8-5.8-8.4-8.9l1.5-1.3c2.6,3,5.4,6,8.3,8.7L105.7,276.4z
			 M287.9,258.2l-1.6-1.1c2.3-3.3,4.4-6.7,6.4-10.2l1.7,1C292.5,251.3,290.3,254.8,287.9,258.2z M89.8,257.8
			c-2.3-3.3-4.5-6.8-6.5-10.4l1.7-1c1.9,3.5,4.1,6.9,6.4,10.2L89.8,257.8z M299.9,236.8L298,236c1.6-3.7,3-7.5,4.2-11.3l1.9,0.6
			C302.9,229.3,301.5,233.1,299.9,236.8z M78,236.5c-1.6-3.7-3-7.6-4.2-11.5l1.9-0.6c1.2,3.8,2.6,7.6,4.2,11.3L78,236.5z
			 M307.2,213.6l-2-0.4c0.8-3.9,1.4-7.9,1.8-11.9l2,0.2C308.7,205.5,308,209.6,307.2,213.6z M70.7,213.2c-0.8-4-1.4-8-1.8-12.1
			l2-0.2c0.4,4,1,8,1.8,11.9L70.7,213.2z M309.7,189.3h-2l0-0.3c0-4-0.2-8-0.6-12l2-0.2c0.4,4,0.6,8.1,0.6,12.2L309.7,189.3z
			 M70.3,188.9l-2,0c0-4.1,0.2-8.2,0.6-12.2l2,0.2C70.5,180.8,70.3,184.9,70.3,188.9z M305.3,165.1c-0.8-3.9-1.8-7.8-3-11.6l1.9-0.6
			c1.2,3.9,2.2,7.9,3.1,11.8L305.3,165.1z M72.7,165l-2-0.4c0.8-4,1.9-8,3.1-11.8l1.9,0.6C74.6,157.2,73.5,161.1,72.7,165z
			 M298.1,142.2c-1.6-3.7-3.4-7.3-5.3-10.8l1.7-1c2,3.6,3.8,7.2,5.4,11L298.1,142.2z M79.9,142.1l-1.8-0.8c1.6-3.7,3.4-7.4,5.4-11
			l1.7,1C83.3,134.8,81.5,138.4,79.9,142.1z M286.5,121.2c-2.3-3.3-4.8-6.5-7.4-9.5l1.5-1.3c2.6,3.1,5.2,6.3,7.5,9.7L286.5,121.2z
			 M91.6,121.1L90,120c2.3-3.3,4.8-6.6,7.5-9.7l1.5,1.3C96.4,114.6,93.9,117.8,91.6,121.1z M270.8,103c-2.9-2.8-6-5.4-9.1-7.8
			l1.2-1.6c3.2,2.5,6.3,5.2,9.3,8L270.8,103z M107.3,102.9l-1.4-1.5c2.9-2.8,6.1-5.5,9.3-8l1.2,1.6
			C113.3,97.5,110.2,100.2,107.3,102.9z M251.8,88.3c-3.4-2.1-6.9-4.1-10.5-5.8l0.9-1.8c3.6,1.8,7.2,3.8,10.7,5.9L251.8,88.3z
			 M126.3,88.2l-1.1-1.7c3.5-2.2,7-4.1,10.7-5.9l0.9,1.8C133.2,84.1,129.7,86.1,126.3,88.2z M230.3,77.7c-3.7-1.4-7.6-2.6-11.5-3.6
			l0.5-1.9c3.9,1,7.9,2.2,11.7,3.7L230.3,77.7z M147.8,77.6l-0.7-1.9c3.8-1.4,7.7-2.6,11.7-3.6l0.5,1.9
			C155.5,75,151.6,76.3,147.8,77.6z M207,71.7c-3.9-0.6-8-1-12-1.2l0.1-2c4.1,0.2,8.2,0.6,12.2,1.2L207,71.7z M171.1,71.6l-0.3-2
			c4-0.6,8.1-1,12.2-1.2l0.1,2C179.1,70.6,175,71.1,171.1,71.6z"/>
	</g>
</g>
</svg>
